# xmcd
#
# Track frame offsets: 
#        150
#        24913
#        43119
#        57125
#        74584
#        96372
#        129122
#        160750
#        171220
#        188341
#        211024
#        260359
#        286061
#        334251
#
# Disc length: 4734 seconds
#
# Revision: 2
# Processed by: cddbd v1.5.2PL0 Copyright (c) Steve Scherf et al.
# Submitted via: ExactAudioCopy v1.0b1
#
DISCID=b9127c0e
DTITLE=Various Artist - Blue Note - A Story Of Jazz
DYEAR=2005
DGENRE=Jazz
TTITLE0=Cantaloupe Island - Herbie Hancock
TTITLE1=Rose Rouge - St. Germain
TTITLE2=Don't Know Why - Norah Jones
TTITLE3=Garota De Ipanema - Eliane Elias
TTITLE4=Don't Worry, Be Happy - Bobby Mcferrin
TTITLE5=Song For My Father - Horace Silver
TTITLE6=Feeling Of Jazz - Wynton Marsalis Feat. Dianne Reeves
TTITLE7=My Funny Valentine - Chet Baker
TTITLE8=I Can't Stop - Al Green
TTITLE9=You're My Everything - Anita Baker
TTITLE10=Autumn Leaves - Cannonball Adderley Feat. Miles Davis
TTITLE11=Le Jardin D'hiver - Jacky Terrasson
TTITLE12=Blue Train - John Coltrane
TTITLE13=Cantaloop - Us3
EXTD=YEAR: 2005
EXTT0=
EXTT1=
EXTT2=
EXTT3=
EXTT4=
EXTT5=
EXTT6=
EXTT7=
EXTT8=
EXTT9=
EXTT10=
EXTT11=
EXTT12=
EXTT13=
PLAYORDER=
